<svg width="225.9" height="43.68" viewBox="0 0 225.9 43.68" xmlns="http://www.w3.org/2000/svg"><g id="svgGroup" stroke-linecap="round" fill-rule="evenodd" font-size="9pt" stroke="#000000" stroke-width="0.25mm" fill="#000000" style="stroke:#000000;stroke-width:0.25mm;fill:#000000"><path d="M 168.48 27.9 L 168.48 9.48 Q 168.48 7.404 167.677 6.409 A 2.471 2.471 0 0 0 167.61 6.33 A 4.692 4.692 0 0 0 166.911 5.674 Q 166.415 5.3 165.875 5.141 A 2.885 2.885 0 0 0 165.72 5.1 A 8.597 8.597 0 0 1 165.047 4.889 Q 163.985 4.503 163.786 4.012 A 0.612 0.612 0 0 1 163.74 3.78 A 0.448 0.448 0 0 1 163.947 3.398 Q 164.025 3.343 164.132 3.301 A 1.313 1.313 0 0 1 164.22 3.27 A 2.81 2.81 0 0 1 164.604 3.182 Q 164.981 3.12 165.48 3.12 Q 166.86 3.12 168.21 3.21 A 38.959 38.959 0 0 0 169.637 3.277 Q 170.385 3.3 171.214 3.3 A 61.862 61.862 0 0 0 171.24 3.3 A 57.231 57.231 0 0 0 172.907 3.277 A 48.206 48.206 0 0 0 173.85 3.24 A 55.844 55.844 0 0 1 174.875 3.199 Q 175.344 3.185 175.765 3.181 A 32.58 32.58 0 0 1 176.04 3.18 A 6.741 6.741 0 0 1 176.498 3.195 Q 176.734 3.211 176.935 3.245 A 2.779 2.779 0 0 1 177.3 3.33 A 1.114 1.114 0 0 1 177.499 3.412 Q 177.602 3.468 177.668 3.54 A 0.432 0.432 0 0 1 177.78 3.84 A 0.642 0.642 0 0 1 177.538 4.346 Q 177.445 4.425 177.317 4.491 A 1.505 1.505 0 0 1 177.3 4.5 A 4.465 4.465 0 0 1 176.987 4.64 Q 176.533 4.824 175.8 5.04 A 1.959 1.959 0 0 0 175.333 5.278 Q 174.918 5.556 174.452 6.092 A 8.882 8.882 0 0 0 174.18 6.42 Q 173.286 7.553 173.28 9.338 A 7.16 7.16 0 0 0 173.28 9.36 L 173.28 26.22 Q 173.28 29.952 174.26 32.65 A 11.835 11.835 0 0 0 174.9 34.11 A 11.167 11.167 0 0 0 177.04 37.005 A 9.876 9.876 0 0 0 179.37 38.67 Q 182.22 40.14 185.88 40.14 A 14.036 14.036 0 0 0 189.42 39.721 A 9.211 9.211 0 0 0 194.94 35.85 A 15.767 15.767 0 0 0 197.054 31.054 Q 197.605 28.974 197.76 26.519 A 31.454 31.454 0 0 0 197.82 24.54 Q 197.82 23.359 197.796 21.506 A 478.631 478.631 0 0 0 197.79 21.06 Q 197.76 18.9 197.7 16.41 Q 197.64 13.92 197.58 11.64 A 16.069 16.069 0 0 0 197.453 9.58 A 13.784 13.784 0 0 0 197.31 8.7 Q 197.04 7.32 196.5 6.33 Q 196.074 5.548 195.46 5.234 A 1.874 1.874 0 0 0 195.12 5.1 Q 194.52 4.92 193.83 4.62 A 2.262 2.262 0 0 1 193.561 4.483 Q 193.268 4.305 193.179 4.092 A 0.494 0.494 0 0 1 193.14 3.9 A 0.448 0.448 0 0 1 193.347 3.518 Q 193.425 3.463 193.532 3.421 A 1.313 1.313 0 0 1 193.62 3.39 A 2.81 2.81 0 0 1 194.004 3.302 Q 194.381 3.24 194.88 3.24 Q 196.191 3.24 197.069 3.267 A 36.697 36.697 0 0 1 197.16 3.27 A 47.321 47.321 0 0 0 197.894 3.288 Q 198.225 3.294 198.596 3.297 A 99.619 99.619 0 0 0 199.38 3.3 A 54.505 54.505 0 0 0 200.533 3.288 A 44.603 44.603 0 0 0 201.18 3.27 A 40.62 40.62 0 0 0 202.406 3.208 A 36.456 36.456 0 0 0 202.8 3.18 Q 203.58 3.12 204.24 3.12 A 6.741 6.741 0 0 1 204.698 3.135 Q 204.934 3.151 205.135 3.185 A 2.779 2.779 0 0 1 205.5 3.27 A 1.114 1.114 0 0 1 205.699 3.352 Q 205.802 3.408 205.868 3.48 A 0.432 0.432 0 0 1 205.98 3.78 Q 205.98 4.512 204.236 4.927 A 9.853 9.853 0 0 1 204 4.98 A 3.829 3.829 0 0 0 202.995 5.312 A 2.785 2.785 0 0 0 201.78 6.48 A 5.769 5.769 0 0 0 201.28 7.737 Q 201.118 8.327 201.042 9.012 A 10.57 10.57 0 0 0 201 9.48 Q 200.7 14.64 200.61 18.9 Q 200.52 23.16 200.4 27.3 A 18.274 18.274 0 0 1 199.639 32.175 A 15.705 15.705 0 0 1 198.18 35.52 Q 196.08 39.12 192.57 41.13 A 15.302 15.302 0 0 1 186.052 43.086 A 18.667 18.667 0 0 1 184.62 43.14 A 24.99 24.99 0 0 1 180.714 42.852 Q 178.584 42.514 176.817 41.782 A 13.872 13.872 0 0 1 175.68 41.25 Q 172.08 39.36 170.28 35.91 Q 168.48 32.46 168.48 27.9 Z M 56.64 43.26 L 48.3 22.56 A 4.595 4.595 0 0 0 47.611 21.266 A 4.123 4.123 0 0 0 46.98 20.61 A 5.877 5.877 0 0 0 46.207 20.06 Q 45.693 19.757 45.18 19.62 Q 44.7 19.44 44.25 19.2 A 1.087 1.087 0 0 1 44.028 19.046 A 0.66 0.66 0 0 1 43.8 18.54 A 0.421 0.421 0 0 1 43.856 18.321 Q 43.948 18.164 44.198 18.102 A 1.105 1.105 0 0 1 44.25 18.09 Q 44.7 18 45 18 A 18.178 18.178 0 0 1 45.94 18.023 A 15.201 15.201 0 0 1 46.47 18.06 Q 47.16 18.12 47.88 18.21 Q 48.6 18.3 49.38 18.3 Q 50.22 18.3 51.06 18.21 Q 51.9 18.12 52.71 18.06 Q 53.52 18 54.36 18 A 1.899 1.899 0 0 1 54.514 18.007 Q 54.666 18.02 54.877 18.054 A 9.007 9.007 0 0 1 55.08 18.09 A 1.343 1.343 0 0 1 55.087 18.091 Q 55.56 18.183 55.56 18.54 Q 55.56 18.96 55.11 19.2 Q 54.66 19.44 54.18 19.62 A 1.373 1.373 0 0 0 53.483 20.109 A 2.064 2.064 0 0 0 53.25 20.49 A 3.401 3.401 0 0 0 52.932 21.71 A 4.075 4.075 0 0 0 52.92 22.02 A 4.272 4.272 0 0 0 53.167 23.434 A 4.901 4.901 0 0 0 53.22 23.58 L 57.9 35.64 Q 57.954 35.855 58.151 35.877 A 0.427 0.427 0 0 0 58.2 35.88 A 0.358 0.358 0 0 0 58.321 35.861 Q 58.457 35.813 58.5 35.64 L 62.58 25.92 A 7.034 7.034 0 0 0 62.851 25.061 A 5.69 5.69 0 0 0 62.97 24.42 A 11.565 11.565 0 0 0 63.054 23.395 A 10.04 10.04 0 0 0 63.06 23.04 A 2.767 2.767 0 0 0 62.793 21.815 A 2.789 2.789 0 0 0 62.04 20.88 Q 61.02 20.04 60 19.62 Q 59.52 19.44 59.07 19.2 A 1.087 1.087 0 0 1 58.848 19.046 A 0.66 0.66 0 0 1 58.62 18.54 A 0.455 0.455 0 0 1 58.663 18.338 Q 58.754 18.151 59.04 18.09 Q 59.46 18 59.82 18 A 10.923 10.923 0 0 1 60.805 18.047 A 14.218 14.218 0 0 1 61.65 18.15 A 10.69 10.69 0 0 0 62.336 18.229 Q 63.165 18.3 64.32 18.3 Q 65.606 18.3 66.611 18.212 A 15.991 15.991 0 0 0 67.2 18.15 Q 68.321 18.01 69.232 18.001 A 12.594 12.594 0 0 1 69.36 18 A 2.595 2.595 0 0 1 69.595 18.012 Q 69.709 18.022 69.837 18.042 A 5.993 5.993 0 0 1 70.11 18.09 A 0.895 0.895 0 0 1 70.291 18.145 Q 70.552 18.258 70.56 18.524 A 0.562 0.562 0 0 1 70.56 18.54 Q 70.56 18.96 70.11 19.2 Q 69.66 19.44 69.18 19.62 A 7.033 7.033 0 0 0 68.343 19.99 A 8.698 8.698 0 0 0 67.83 20.28 Q 67.196 20.666 67.145 21.611 A 3.141 3.141 0 0 0 67.14 21.78 Q 67.14 22.115 67.218 22.527 A 5.822 5.822 0 0 0 67.23 22.59 Q 67.32 23.04 67.56 23.58 L 72.06 35.16 Q 72.36 35.819 72.539 35.82 A 0.243 0.243 0 0 0 72.69 35.761 Q 72.839 35.645 72.989 35.296 A 3.439 3.439 0 0 0 73.02 35.22 L 77.58 24.6 Q 77.82 24.12 77.91 23.4 Q 77.994 22.732 78 22.322 A 4.232 4.232 0 0 0 78 22.26 A 2.627 2.627 0 0 0 77.881 21.452 A 2.131 2.131 0 0 0 77.28 20.52 A 5.86 5.86 0 0 0 76.749 20.084 Q 76.313 19.77 75.9 19.62 Q 75.42 19.44 74.97 19.2 A 1.087 1.087 0 0 1 74.748 19.046 A 0.66 0.66 0 0 1 74.52 18.54 A 0.421 0.421 0 0 1 74.576 18.321 Q 74.668 18.164 74.918 18.102 A 1.105 1.105 0 0 1 74.97 18.09 Q 75.42 18 75.72 18 A 19.046 19.046 0 0 1 76.492 18.015 Q 77.231 18.045 77.748 18.137 A 5.283 5.283 0 0 1 77.82 18.15 Q 78.425 18.266 79.535 18.292 A 29.206 29.206 0 0 0 80.22 18.3 Q 81.36 18.3 81.84 18.21 A 55.897 55.897 0 0 1 82.183 18.147 Q 82.319 18.122 82.443 18.1 A 31.498 31.498 0 0 1 82.68 18.06 Q 83.04 18 83.7 18 A 3.328 3.328 0 0 1 84.124 18.028 A 4.346 4.346 0 0 1 84.48 18.09 A 0.783 0.783 0 0 1 84.657 18.148 Q 84.9 18.266 84.9 18.54 Q 84.9 18.96 84.45 19.2 Q 84 19.44 83.52 19.62 A 2.277 2.277 0 0 0 82.785 19.978 Q 82.501 20.181 82.223 20.483 A 5.76 5.76 0 0 0 81.78 21.03 Q 80.94 22.2 80.34 23.58 L 72.12 43.26 A 0.965 0.965 0 0 1 72.013 43.452 Q 71.93 43.565 71.823 43.622 A 0.508 0.508 0 0 1 71.58 43.68 Q 71.377 43.68 71.174 43.38 A 1.878 1.878 0 0 1 71.1 43.26 L 64.86 27.78 A 2.767 2.767 0 0 0 64.784 27.596 Q 64.659 27.324 64.534 27.255 A 0.202 0.202 0 0 0 64.5 27.24 A 0.161 0.161 0 0 0 64.401 27.282 Q 64.29 27.372 64.16 27.653 A 3.936 3.936 0 0 0 64.08 27.84 L 57.54 43.26 Q 57.36 43.68 57.06 43.68 Q 56.961 43.68 56.861 43.598 A 0.597 0.597 0 0 1 56.82 43.56 A 0.722 0.722 0 0 1 56.672 43.341 A 0.887 0.887 0 0 1 56.64 43.26 Z M 6 36.36 L 6 9.36 A 8.458 8.458 0 0 0 5.939 8.301 Q 5.793 7.152 5.303 6.503 A 2.182 2.182 0 0 0 5.13 6.3 A 3.084 3.084 0 0 0 4.407 5.761 Q 3.672 5.351 2.506 5.087 A 13.343 13.343 0 0 0 1.98 4.98 Q 0.96 4.8 0.48 4.59 Q 0.007 4.383 0 3.913 A 0.95 0.95 0 0 1 0 3.9 A 0.559 0.559 0 0 1 0.237 3.428 Q 0.325 3.363 0.445 3.314 A 1.285 1.285 0 0 1 0.48 3.3 A 2.447 2.447 0 0 1 0.882 3.19 Q 1.253 3.12 1.74 3.12 Q 2.935 3.12 3.76 3.138 A 43.214 43.214 0 0 1 4.23 3.15 Q 5.16 3.18 6.06 3.21 Q 6.865 3.237 8.102 3.24 A 130.23 130.23 0 0 0 8.4 3.24 Q 9.312 3.24 10.685 3.186 A 107.758 107.758 0 0 0 10.83 3.18 A 86.225 86.225 0 0 0 13.103 3.056 A 97.2 97.2 0 0 0 13.89 3 Q 15.48 2.88 16.77 2.82 A 97.044 97.044 0 0 1 17.372 2.794 Q 18.168 2.762 18.614 2.76 A 12.807 12.807 0 0 1 18.66 2.76 A 42.562 42.562 0 0 1 23.315 3 Q 25.623 3.255 27.602 3.779 A 22.635 22.635 0 0 1 29.1 4.23 A 21.949 21.949 0 0 1 32.739 5.827 A 16.188 16.188 0 0 1 36.12 8.31 Q 38.82 10.92 40.11 14.37 A 20.712 20.712 0 0 1 41.385 20.92 A 23.816 23.816 0 0 1 41.4 21.78 Q 41.4 26.1 39.78 29.88 Q 38.16 33.66 35.28 36.57 Q 32.4 39.48 28.62 41.1 Q 24.84 42.72 20.52 42.72 A 6.373 6.373 0 0 1 20.501 42.72 Q 20 42.718 18.549 42.639 A 202.789 202.789 0 0 1 17.85 42.6 A 159.575 159.575 0 0 0 15.924 42.501 Q 14.94 42.456 13.849 42.416 A 271.134 271.134 0 0 0 13.11 42.39 Q 10.44 42.3 8.04 42.3 Q 6.854 42.3 6.05 42.359 A 15.134 15.134 0 0 0 6.03 42.36 Q 5.22 42.42 4.29 42.51 Q 3.45 42.591 2.047 42.599 A 54.787 54.787 0 0 1 1.74 42.6 Q 1.202 42.6 0.806 42.514 A 2.344 2.344 0 0 1 0.48 42.42 A 1.017 1.017 0 0 1 0.262 42.309 Q 0.123 42.214 0.058 42.082 A 0.584 0.584 0 0 1 0 41.82 A 0.724 0.724 0 0 1 0.045 41.558 Q 0.146 41.294 0.48 41.19 Q 0.96 41.04 1.98 40.86 Q 4.26 40.44 5.13 39.48 Q 5.966 38.558 5.999 36.527 A 10.381 10.381 0 0 0 6 36.36 Z M 135.9 37.44 L 135.9 8.34 A 5.247 5.247 0 0 0 135.717 6.927 A 4.311 4.311 0 0 0 135.12 5.64 Q 134.34 4.5 133.14 3.96 Q 132.9 3.84 132.63 3.63 A 0.672 0.672 0 0 1 132.364 3.14 A 0.896 0.896 0 0 1 132.36 3.06 A 0.58 0.58 0 0 1 132.382 2.894 A 0.404 0.404 0 0 1 132.6 2.64 A 2.408 2.408 0 0 1 132.975 2.489 A 2.146 2.146 0 0 1 133.08 2.46 Q 133.677 2.322 134.609 2.009 A 38.099 38.099 0 0 0 135.21 1.8 A 73.67 73.67 0 0 0 136.996 1.14 A 63.05 63.05 0 0 0 137.76 0.84 A 236.345 236.345 0 0 0 138.28 0.631 Q 139.059 0.318 139.38 0.18 Q 139.74 0 139.92 0 Q 140.02 0 140.119 0.082 A 0.597 0.597 0 0 1 140.16 0.12 Q 140.28 0.24 140.28 0.42 A 3.432 3.432 0 0 1 140.279 0.504 Q 140.27 0.857 140.2 2.236 A 476.702 476.702 0 0 1 140.19 2.43 A 61.56 61.56 0 0 0 140.135 3.863 Q 140.1 5.145 140.1 6.72 L 140.1 19.02 A 17.292 17.292 0 0 0 140.106 19.483 Q 140.126 20.245 140.22 20.55 A 0.961 0.961 0 0 0 140.297 20.734 Q 140.354 20.838 140.434 20.903 A 0.464 0.464 0 0 0 140.64 21 Q 142.5 19.44 144.96 18.45 A 15.881 15.881 0 0 1 146.809 17.828 Q 148.194 17.46 149.4 17.46 A 10.255 10.255 0 0 1 153.269 18.181 A 9.719 9.719 0 0 1 154.89 19.02 Q 157.32 20.58 158.76 23.25 A 12.079 12.079 0 0 1 160.141 27.943 A 14.769 14.769 0 0 1 160.2 29.28 A 16.89 16.89 0 0 1 159.754 33.24 A 13.752 13.752 0 0 1 158.52 36.51 Q 156.84 39.66 153.87 41.4 Q 150.9 43.14 146.94 43.14 Q 145.62 43.14 144.3 42.9 A 40.846 40.846 0 0 1 142.388 42.506 A 36.144 36.144 0 0 1 141.78 42.36 A 109.631 109.631 0 0 1 140.688 42.056 Q 140.192 41.916 139.755 41.786 A 59.774 59.774 0 0 1 139.47 41.7 A 19.909 19.909 0 0 0 139.123 41.598 Q 138.58 41.444 138.312 41.41 A 1.06 1.06 0 0 0 138.18 41.4 A 1.103 1.103 0 0 0 137.641 41.544 A 1.433 1.433 0 0 0 137.49 41.64 Q 137.16 41.88 136.86 42.18 A 1.685 1.685 0 0 1 136.714 42.311 Q 136.5 42.48 136.32 42.48 Q 136.08 42.48 135.78 42.27 A 0.86 0.86 0 0 1 135.622 42.13 A 0.55 0.55 0 0 1 135.48 41.76 Q 135.48 41.22 135.69 39.9 A 17.45 17.45 0 0 0 135.86 38.472 A 13.736 13.736 0 0 0 135.9 37.44 Z M 214.38 36.42 L 214.38 9.3 A 8.039 8.039 0 0 0 214.319 8.269 Q 214.149 6.961 213.51 6.3 A 3.084 3.084 0 0 0 212.787 5.761 Q 212.052 5.351 210.886 5.087 A 13.343 13.343 0 0 0 210.36 4.98 Q 208.593 4.659 208.403 3.955 A 0.669 0.669 0 0 1 208.38 3.78 A 0.448 0.448 0 0 1 208.587 3.398 Q 208.665 3.343 208.772 3.301 A 1.313 1.313 0 0 1 208.86 3.27 A 2.81 2.81 0 0 1 209.244 3.182 Q 209.621 3.12 210.12 3.12 Q 211.66 3.12 212.684 3.174 A 24.913 24.913 0 0 1 212.79 3.18 Q 213.84 3.24 214.8 3.27 A 54.113 54.113 0 0 0 215.579 3.288 Q 215.928 3.294 216.319 3.297 A 109.633 109.633 0 0 0 217.14 3.3 Q 218.46 3.3 219.3 3.27 Q 220.14 3.24 221.1 3.18 Q 222.016 3.123 223.534 3.12 A 84.966 84.966 0 0 1 223.68 3.12 A 6.741 6.741 0 0 1 224.138 3.135 Q 224.374 3.151 224.575 3.185 A 2.779 2.779 0 0 1 224.94 3.27 A 1.114 1.114 0 0 1 225.139 3.352 Q 225.242 3.408 225.308 3.48 A 0.432 0.432 0 0 1 225.42 3.78 A 0.711 0.711 0 0 1 225.235 4.255 Q 225.15 4.354 225.027 4.442 A 1.651 1.651 0 0 1 224.94 4.5 A 2.281 2.281 0 0 1 224.587 4.676 Q 224.206 4.83 223.637 4.943 A 9.397 9.397 0 0 1 223.44 4.98 Q 221.33 5.379 220.304 6.212 A 3.312 3.312 0 0 0 220.2 6.3 A 2.667 2.667 0 0 0 219.486 7.359 Q 219.315 7.802 219.239 8.358 A 7.023 7.023 0 0 0 219.18 9.3 L 219.18 36.42 Q 219.18 37.874 219.784 38.781 A 2.876 2.876 0 0 0 220.44 39.48 A 6.036 6.036 0 0 0 221.674 40.194 Q 222.637 40.617 223.92 40.86 A 11.251 11.251 0 0 1 224.451 40.966 Q 224.929 41.074 225.243 41.201 A 2.406 2.406 0 0 1 225.42 41.28 A 1.181 1.181 0 0 1 225.647 41.425 Q 225.779 41.535 225.843 41.671 A 0.631 0.631 0 0 1 225.9 41.94 A 0.448 0.448 0 0 1 225.693 42.322 Q 225.616 42.377 225.509 42.419 A 1.313 1.313 0 0 1 225.42 42.45 A 2.81 2.81 0 0 1 225.036 42.538 Q 224.66 42.6 224.16 42.6 Q 222.54 42.6 221.49 42.51 Q 220.44 42.42 219.48 42.36 A 27.125 27.125 0 0 0 218.701 42.323 Q 218.003 42.3 217.14 42.3 A 64.521 64.521 0 0 0 216.07 42.308 Q 215.541 42.317 215.072 42.335 A 34.397 34.397 0 0 0 214.53 42.36 Q 213.42 42.42 212.25 42.51 A 27.184 27.184 0 0 1 211.309 42.565 Q 210.473 42.6 209.46 42.6 A 6.741 6.741 0 0 1 209.002 42.585 Q 208.766 42.569 208.566 42.535 A 2.779 2.779 0 0 1 208.2 42.45 A 1.114 1.114 0 0 1 208.002 42.368 Q 207.898 42.312 207.833 42.24 A 0.432 0.432 0 0 1 207.72 41.94 Q 207.72 41.279 209.387 40.922 A 10.159 10.159 0 0 1 209.7 40.86 A 12.016 12.016 0 0 0 211.08 40.526 Q 211.762 40.315 212.309 40.035 A 5.116 5.116 0 0 0 213.18 39.48 A 2.984 2.984 0 0 0 214.151 38.039 Q 214.316 37.536 214.362 36.92 A 6.652 6.652 0 0 0 214.38 36.42 Z M 104.4 26.88 L 91.74 26.88 A 2.459 2.459 0 0 0 91.33 26.912 Q 91.112 26.949 90.942 27.029 A 0.962 0.962 0 0 0 90.57 27.33 A 1.191 1.191 0 0 0 90.413 27.647 Q 90.297 27.982 90.259 28.523 A 8.274 8.274 0 0 0 90.24 29.1 A 11.401 11.401 0 0 0 90.836 32.819 A 10.512 10.512 0 0 0 91.5 34.35 Q 92.76 36.72 94.86 38.13 Q 96.96 39.54 99.48 39.54 Q 101.28 39.54 102.75 38.85 A 7.737 7.737 0 0 0 105.134 37.092 A 9.002 9.002 0 0 0 105.36 36.84 Q 105.6 36.54 105.72 36.45 A 0.441 0.441 0 0 1 105.904 36.371 A 0.612 0.612 0 0 1 106.02 36.36 Q 106.453 36.36 106.496 36.848 A 1.293 1.293 0 0 1 106.5 36.96 Q 106.5 38.1 105.42 39.48 Q 104.52 40.62 103.26 41.46 Q 102 42.3 100.5 42.75 Q 99 43.2 97.38 43.2 A 11.333 11.333 0 0 1 94.223 42.776 A 9.493 9.493 0 0 1 91.62 41.58 Q 89.16 39.96 87.78 36.99 A 14.568 14.568 0 0 1 86.611 33.025 A 19.274 19.274 0 0 1 86.4 30.12 Q 86.4 26.64 87.99 23.79 Q 89.58 20.94 92.22 19.2 Q 94.86 17.46 97.98 17.46 Q 100.38 17.46 102.24 18.42 Q 104.1 19.38 105.15 21.09 A 7.124 7.124 0 0 1 106.163 24.205 A 8.825 8.825 0 0 1 106.2 25.02 Q 106.2 26.653 104.813 26.852 A 2.904 2.904 0 0 1 104.4 26.88 Z M 127.8 26.88 L 115.14 26.88 A 2.459 2.459 0 0 0 114.73 26.912 Q 114.512 26.949 114.342 27.029 A 0.962 0.962 0 0 0 113.97 27.33 A 1.191 1.191 0 0 0 113.813 27.647 Q 113.697 27.982 113.659 28.523 A 8.274 8.274 0 0 0 113.64 29.1 A 11.401 11.401 0 0 0 114.236 32.819 A 10.512 10.512 0 0 0 114.9 34.35 Q 116.16 36.72 118.26 38.13 Q 120.36 39.54 122.88 39.54 Q 124.68 39.54 126.15 38.85 A 7.737 7.737 0 0 0 128.534 37.092 A 9.002 9.002 0 0 0 128.76 36.84 Q 129 36.54 129.12 36.45 A 0.441 0.441 0 0 1 129.304 36.371 A 0.612 0.612 0 0 1 129.42 36.36 Q 129.853 36.36 129.896 36.848 A 1.293 1.293 0 0 1 129.9 36.96 Q 129.9 38.1 128.82 39.48 Q 127.92 40.62 126.66 41.46 Q 125.4 42.3 123.9 42.75 Q 122.4 43.2 120.78 43.2 A 11.333 11.333 0 0 1 117.623 42.776 A 9.493 9.493 0 0 1 115.02 41.58 Q 112.56 39.96 111.18 36.99 A 14.568 14.568 0 0 1 110.011 33.025 A 19.274 19.274 0 0 1 109.8 30.12 Q 109.8 26.64 111.39 23.79 Q 112.98 20.94 115.62 19.2 Q 118.26 17.46 121.38 17.46 Q 123.78 17.46 125.64 18.42 Q 127.5 19.38 128.55 21.09 A 7.124 7.124 0 0 1 129.563 24.205 A 8.825 8.825 0 0 1 129.6 25.02 Q 129.6 26.653 128.213 26.852 A 2.904 2.904 0 0 1 127.8 26.88 Z M 10.8 8.28 L 10.8 35.04 Q 10.8 36.744 11.466 37.843 A 3.568 3.568 0 0 0 12.12 38.64 A 6.215 6.215 0 0 0 14.176 39.866 A 8.282 8.282 0 0 0 15.51 40.23 Q 17.58 40.62 19.8 40.62 A 16.319 16.319 0 0 0 24.692 39.909 A 14.244 14.244 0 0 0 28.08 38.34 A 15.437 15.437 0 0 0 33.627 32.165 A 18.275 18.275 0 0 0 33.69 32.04 A 18.86 18.86 0 0 0 35.463 26.247 A 24.219 24.219 0 0 0 35.7 22.8 Q 35.7 18.48 34.26 15.09 A 18.097 18.097 0 0 0 32.085 11.274 A 15.697 15.697 0 0 0 30.42 9.39 Q 28.02 7.08 25.02 5.85 A 16.009 16.009 0 0 0 19.724 4.639 A 15.186 15.186 0 0 0 18.96 4.62 Q 16.985 4.62 15.449 4.708 A 36.701 36.701 0 0 0 14.55 4.77 Q 12.72 4.92 11.76 5.7 Q 10.981 6.333 10.834 7.638 A 5.75 5.75 0 0 0 10.8 8.28 Z M 140.1 22.74 L 140.1 34.38 A 6.346 6.346 0 0 0 140.45 36.515 A 5.707 5.707 0 0 0 141.27 38.04 Q 142.44 39.6 144.33 40.44 Q 146.22 41.28 148.32 41.28 A 6.152 6.152 0 0 0 150.686 40.834 A 5.797 5.797 0 0 0 152.25 39.87 A 8.197 8.197 0 0 0 154.02 37.709 A 10.995 10.995 0 0 0 154.8 36.03 A 14.356 14.356 0 0 0 155.584 32.683 A 18.115 18.115 0 0 0 155.7 30.6 Q 155.7 28.26 154.83 25.8 Q 153.96 23.34 152.13 21.66 Q 150.3 19.98 147.42 19.98 A 12.491 12.491 0 0 0 145.335 20.146 A 9.136 9.136 0 0 0 143.22 20.76 A 11.761 11.761 0 0 0 140.984 22.023 A 10.296 10.296 0 0 0 140.1 22.74 Z M 91.86 25.02 L 97.32 25.02 A 58.347 58.347 0 0 0 98.341 25.012 Q 98.842 25.003 99.279 24.985 A 28.385 28.385 0 0 0 99.78 24.96 Q 100.8 24.9 101.76 24.72 A 0.473 0.473 0 0 0 102.002 24.599 Q 102.075 24.528 102.12 24.42 A 0.753 0.753 0 0 0 102.15 24.33 A 2.026 2.026 0 0 0 102.198 24.097 Q 102.234 23.853 102.239 23.513 A 7.489 7.489 0 0 0 102.24 23.4 A 3.553 3.553 0 0 0 101.151 20.827 A 5.138 5.138 0 0 0 100.71 20.43 A 5.562 5.562 0 0 0 97.34 19.205 A 6.994 6.994 0 0 0 97.08 19.2 A 5.037 5.037 0 0 0 95.183 19.583 A 6.541 6.541 0 0 0 94.32 20.01 A 7.788 7.788 0 0 0 92.41 21.566 A 7.268 7.268 0 0 0 92.04 22.02 Q 91.192 23.151 91.143 24.281 A 3.203 3.203 0 0 0 91.14 24.42 Q 91.14 24.977 91.76 25.017 A 1.55 1.55 0 0 0 91.86 25.02 Z M 115.26 25.02 L 120.72 25.02 A 58.347 58.347 0 0 0 121.741 25.012 Q 122.242 25.003 122.679 24.985 A 28.385 28.385 0 0 0 123.18 24.96 Q 124.2 24.9 125.16 24.72 A 0.473 0.473 0 0 0 125.402 24.599 Q 125.475 24.528 125.52 24.42 A 0.753 0.753 0 0 0 125.55 24.33 A 2.026 2.026 0 0 0 125.598 24.097 Q 125.634 23.853 125.639 23.513 A 7.489 7.489 0 0 0 125.64 23.4 A 3.553 3.553 0 0 0 124.551 20.827 A 5.138 5.138 0 0 0 124.11 20.43 A 5.562 5.562 0 0 0 120.74 19.205 A 6.994 6.994 0 0 0 120.48 19.2 A 5.037 5.037 0 0 0 118.583 19.583 A 6.541 6.541 0 0 0 117.72 20.01 A 7.788 7.788 0 0 0 115.81 21.566 A 7.268 7.268 0 0 0 115.44 22.02 Q 114.592 23.151 114.543 24.281 A 3.203 3.203 0 0 0 114.54 24.42 Q 114.54 24.977 115.16 25.017 A 1.55 1.55 0 0 0 115.26 25.02 Z" vector-effect="non-scaling-stroke"/></g></svg>