<svg width="310.701" height="77.001" viewBox="0 0 310.701 77.001" xmlns="http://www.w3.org/2000/svg"><g id="svgGroup" stroke-linecap="round" fill-rule="evenodd" font-size="9pt" stroke="#000" stroke-width="0.25mm" fill="#000" style="stroke:#000;stroke-width:0.25mm;fill:#000"><path d="M 115.6 75.9 L 106.4 45.7 A 118.379 118.379 0 0 1 104.27 38.144 A 108.722 108.722 0 0 1 104.15 37.65 Q 103.423 34.626 102.959 32.627 A 260.891 260.891 0 0 1 102.7 31.5 L 102.3 31.5 A 74.513 74.513 0 0 1 102.069 32.709 Q 101.798 34.069 101.394 35.895 A 282.53 282.53 0 0 1 101 37.65 A 83.92 83.92 0 0 1 99.369 43.716 A 95.904 95.904 0 0 1 98.7 45.8 L 89.1 75.9 L 79.1 75.9 L 64.4 22.3 L 73.5 22.3 L 80.9 50.9 Q 82 55.2 83 59.6 A 133.42 133.42 0 0 1 83.617 62.448 Q 83.877 63.722 84.073 64.835 A 56.612 56.612 0 0 1 84.4 66.9 L 84.8 66.9 A 210.349 210.349 0 0 0 85.121 65.513 Q 85.264 64.888 85.421 64.184 A 442.649 442.649 0 0 0 85.75 62.7 Q 86.3 60.2 87 57.45 Q 87.7 54.7 88.4 52.5 L 97.9 22.3 L 107.5 22.3 L 116.7 52.5 Q 117.8 55.9 118.85 59.9 A 82.394 82.394 0 0 1 119.546 62.745 Q 120.05 64.988 120.3 66.8 L 120.7 66.8 Q 121 64.3 122.05 59.9 Q 123.1 55.5 124.3 50.9 L 131.8 22.3 L 140.8 22.3 L 125.9 75.9 L 115.6 75.9 Z M 272 0 L 272 18.5 Q 272 21.9 271.85 24.85 Q 271.726 27.281 271.569 28.864 A 35.985 35.985 0 0 1 271.5 29.5 L 272 29.5 A 17.832 17.832 0 0 1 276.399 25.024 A 21.996 21.996 0 0 1 278.3 23.8 A 15.969 15.969 0 0 1 282.516 22.159 Q 285.229 21.5 288.6 21.5 A 23.319 23.319 0 0 1 296.073 22.647 A 19.433 19.433 0 0 1 304.65 28.45 Q 310.7 35.4 310.7 49.2 A 49.806 49.806 0 0 1 310.134 56.978 Q 309.493 61.024 308.126 64.26 A 21.229 21.229 0 0 1 304.6 70 A 19.921 19.921 0 0 1 290.124 76.957 A 26.798 26.798 0 0 1 288.6 77 A 28.375 28.375 0 0 1 284.369 76.703 Q 282.095 76.36 280.218 75.619 A 14.557 14.557 0 0 1 278.3 74.7 Q 274.3 72.4 272 69.2 L 271.3 69.2 L 269.5 76 L 263.2 76 L 263.2 0 L 272 0 Z M 193.2 45.6 L 193.2 50.9 L 156.5 50.9 A 30.526 30.526 0 0 0 157.064 56.283 Q 157.661 59.23 158.879 61.54 A 14.676 14.676 0 0 0 161.15 64.75 Q 165.6 69.5 173.6 69.5 Q 178.52 69.5 182.37 68.616 A 28.004 28.004 0 0 0 182.65 68.55 A 48.261 48.261 0 0 0 188.167 66.854 A 57.697 57.697 0 0 0 190.8 65.8 L 190.8 73.5 A 43.239 43.239 0 0 1 184.769 75.649 A 37.905 37.905 0 0 1 182.7 76.15 Q 179.302 76.872 174.821 76.981 A 66.894 66.894 0 0 1 173.2 77 A 31.687 31.687 0 0 1 165.828 76.176 A 25.624 25.624 0 0 1 159.75 73.9 Q 153.9 70.8 150.65 64.65 Q 147.621 58.919 147.415 50.8 A 47.234 47.234 0 0 1 147.4 49.6 Q 147.4 41.436 149.939 35.424 A 26.364 26.364 0 0 1 150.35 34.5 A 24.142 24.142 0 0 1 154.411 28.348 A 21.108 21.108 0 0 1 158.65 24.8 A 21.792 21.792 0 0 1 168.077 21.563 A 27.454 27.454 0 0 1 171.1 21.4 A 26.671 26.671 0 0 1 176.764 21.974 A 20.038 20.038 0 0 1 182.95 24.4 Q 187.9 27.4 190.55 32.85 A 25.751 25.751 0 0 1 192.763 39.974 A 34.671 34.671 0 0 1 193.2 45.6 Z M 249.6 45.6 L 249.6 50.9 L 212.9 50.9 A 30.526 30.526 0 0 0 213.464 56.283 Q 214.061 59.23 215.279 61.54 A 14.676 14.676 0 0 0 217.55 64.75 Q 222 69.5 230 69.5 Q 234.92 69.5 238.77 68.616 A 28.004 28.004 0 0 0 239.05 68.55 A 48.261 48.261 0 0 0 244.567 66.854 A 57.697 57.697 0 0 0 247.2 65.8 L 247.2 73.5 A 43.239 43.239 0 0 1 241.169 75.649 A 37.905 37.905 0 0 1 239.1 76.15 Q 235.702 76.872 231.221 76.981 A 66.894 66.894 0 0 1 229.6 77 A 31.687 31.687 0 0 1 222.228 76.176 A 25.624 25.624 0 0 1 216.15 73.9 Q 210.3 70.8 207.05 64.65 Q 204.021 58.919 203.815 50.8 A 47.234 47.234 0 0 1 203.8 49.6 Q 203.8 41.436 206.339 35.424 A 26.364 26.364 0 0 1 206.75 34.5 A 24.142 24.142 0 0 1 210.811 28.348 A 21.108 21.108 0 0 1 215.05 24.8 A 21.792 21.792 0 0 1 224.477 21.563 A 27.454 27.454 0 0 1 227.5 21.4 A 26.671 26.671 0 0 1 233.164 21.974 A 20.038 20.038 0 0 1 239.35 24.4 Q 244.3 27.4 246.95 32.85 A 25.751 25.751 0 0 1 249.163 39.974 A 34.671 34.671 0 0 1 249.6 45.6 Z M 19.9 76 L 0 76 L 0 4.6 L 22 4.6 A 49.241 49.241 0 0 1 30.895 5.366 A 35.955 35.955 0 0 1 40.7 8.6 Q 48.6 12.6 52.9 20.35 Q 57.2 28.1 57.2 39.6 A 52.986 52.986 0 0 1 56.238 50.038 Q 54.122 60.559 47.35 66.85 A 32.45 32.45 0 0 1 33.817 74.249 Q 28.778 75.668 22.764 75.937 A 64.117 64.117 0 0 1 19.9 76 Z M 20.7 12.3 L 9 12.3 L 9 68.3 L 18.7 68.3 A 42.82 42.82 0 0 0 30 66.941 Q 47.7 62.088 47.7 39.9 Q 47.7 25.6 40.65 18.95 Q 33.6 12.3 20.7 12.3 Z M 272 48.9 L 272 49.3 Q 272 59.2 275.25 64.45 A 10.188 10.188 0 0 0 280.662 68.695 Q 283.45 69.7 287.3 69.7 A 15.451 15.451 0 0 0 291.726 69.102 A 11.304 11.304 0 0 0 298.05 64.4 A 18.116 18.116 0 0 0 300.28 59.549 Q 300.981 57.238 301.31 54.433 A 45.917 45.917 0 0 0 301.6 49.1 A 42.104 42.104 0 0 0 301.047 41.945 Q 298.768 28.8 287.1 28.8 A 23.118 23.118 0 0 0 282.951 29.146 Q 280.664 29.564 278.914 30.488 A 9.775 9.775 0 0 0 275.3 33.7 A 15.738 15.738 0 0 0 273.421 37.707 Q 272 42.141 272 48.9 Z M 156.7 43.9 L 184 43.9 A 24.912 24.912 0 0 0 183.506 39.17 Q 182.92 36.368 181.645 34.152 A 14.342 14.342 0 0 0 180.8 32.85 Q 177.7 28.6 171 28.6 A 15.773 15.773 0 0 0 166.648 29.169 A 11.73 11.73 0 0 0 161.05 32.65 A 15.561 15.561 0 0 0 158.07 37.664 Q 157.297 39.725 156.913 42.202 A 30.074 30.074 0 0 0 156.7 43.9 Z M 213.1 43.9 L 240.4 43.9 A 24.912 24.912 0 0 0 239.906 39.17 Q 239.32 36.368 238.045 34.152 A 14.342 14.342 0 0 0 237.2 32.85 Q 234.1 28.6 227.4 28.6 A 15.773 15.773 0 0 0 223.048 29.169 A 11.73 11.73 0 0 0 217.45 32.65 A 15.561 15.561 0 0 0 214.47 37.664 Q 213.697 39.725 213.313 42.202 A 30.074 30.074 0 0 0 213.1 43.9 Z" vector-effect="non-scaling-stroke"/></g></svg>