<svg width="186.42" height="46.2" viewBox="0 0 186.42 46.2" xmlns="http://www.w3.org/2000/svg"><g id="svgGroup" stroke-linecap="round" fill-rule="evenodd" font-size="9pt" stroke="#000" stroke-width="0.25mm" fill="#000" style="stroke:#000;stroke-width:0.25mm;fill:#000"><path d="M 69.36 45.54 L 63.84 27.42 A 71.028 71.028 0 0 1 62.562 22.887 A 65.226 65.226 0 0 1 62.49 22.59 Q 61.92 20.22 61.62 18.9 L 61.38 18.9 A 44.709 44.709 0 0 1 61.241 19.626 Q 61.079 20.442 60.837 21.537 A 169.508 169.508 0 0 1 60.6 22.59 A 50.352 50.352 0 0 1 59.621 26.229 A 57.541 57.541 0 0 1 59.22 27.48 L 53.46 45.54 L 47.46 45.54 L 38.64 13.38 L 44.1 13.38 L 48.54 30.54 Q 49.2 33.12 49.8 35.76 A 80.053 80.053 0 0 1 50.17 37.469 Q 50.326 38.233 50.444 38.901 A 33.968 33.968 0 0 1 50.64 40.14 L 50.88 40.14 A 126.209 126.209 0 0 0 51.073 39.308 Q 51.244 38.558 51.45 37.62 Q 51.78 36.12 52.2 34.47 Q 52.62 32.82 53.04 31.5 L 58.74 13.38 L 64.5 13.38 L 70.02 31.5 Q 70.68 33.54 71.31 35.94 Q 71.792 37.778 72.046 39.228 A 23.927 23.927 0 0 1 72.18 40.08 L 72.42 40.08 Q 72.6 38.58 73.23 35.94 Q 73.86 33.3 74.58 30.54 L 79.08 13.38 L 84.48 13.38 L 75.54 45.54 L 69.36 45.54 Z M 163.2 0 L 163.2 11.1 Q 163.2 13.14 163.11 14.91 Q 163.02 16.68 162.9 17.7 L 163.2 17.7 A 10.699 10.699 0 0 1 165.84 15.014 A 13.198 13.198 0 0 1 166.98 14.28 A 9.581 9.581 0 0 1 169.509 13.295 Q 170.628 13.024 171.934 12.939 A 18.897 18.897 0 0 1 173.16 12.9 A 13.991 13.991 0 0 1 177.644 13.588 A 11.66 11.66 0 0 1 182.79 17.07 A 13.149 13.149 0 0 1 185.271 21.505 Q 185.944 23.472 186.223 25.886 A 31.733 31.733 0 0 1 186.42 29.52 A 29.884 29.884 0 0 1 186.08 34.187 Q 185.305 39.08 182.76 42 A 11.953 11.953 0 0 1 174.074 46.174 A 16.079 16.079 0 0 1 173.16 46.2 A 17.025 17.025 0 0 1 170.621 46.022 Q 168.517 45.704 166.98 44.82 Q 164.58 43.44 163.2 41.52 L 162.78 41.52 L 161.7 45.6 L 157.92 45.6 L 157.92 0 L 163.2 0 Z M 115.92 27.36 L 115.92 30.54 L 93.9 30.54 Q 93.984 34.376 95.328 36.924 A 8.805 8.805 0 0 0 96.69 38.85 A 8.726 8.726 0 0 0 101.239 41.393 A 13.129 13.129 0 0 0 104.16 41.7 A 28.002 28.002 0 0 0 106.877 41.575 Q 108.331 41.433 109.59 41.13 Q 111.96 40.56 114.48 39.48 L 114.48 44.1 A 25.944 25.944 0 0 1 110.861 45.389 A 22.743 22.743 0 0 1 109.62 45.69 Q 107.22 46.2 103.92 46.2 A 19.012 19.012 0 0 1 99.497 45.705 A 15.374 15.374 0 0 1 95.85 44.34 Q 92.34 42.48 90.39 38.79 A 16.014 16.014 0 0 1 88.898 34.546 Q 88.44 32.347 88.44 29.76 A 26.413 26.413 0 0 1 88.755 25.572 Q 89.187 22.885 90.21 20.7 A 14.485 14.485 0 0 1 92.647 17.009 A 12.665 12.665 0 0 1 95.19 14.88 A 13.075 13.075 0 0 1 100.846 12.938 A 16.473 16.473 0 0 1 102.66 12.84 A 16.003 16.003 0 0 1 106.059 13.185 A 12.023 12.023 0 0 1 109.77 14.64 Q 112.74 16.44 114.33 19.71 A 15.451 15.451 0 0 1 115.658 23.984 A 20.803 20.803 0 0 1 115.92 27.36 Z M 149.76 27.36 L 149.76 30.54 L 127.74 30.54 Q 127.824 34.376 129.168 36.924 A 8.805 8.805 0 0 0 130.53 38.85 A 8.726 8.726 0 0 0 135.079 41.393 A 13.129 13.129 0 0 0 138 41.7 A 28.002 28.002 0 0 0 140.717 41.575 Q 142.171 41.433 143.43 41.13 Q 145.8 40.56 148.32 39.48 L 148.32 44.1 A 25.944 25.944 0 0 1 144.701 45.389 A 22.743 22.743 0 0 1 143.46 45.69 Q 141.06 46.2 137.76 46.2 A 19.012 19.012 0 0 1 133.337 45.705 A 15.374 15.374 0 0 1 129.69 44.34 Q 126.18 42.48 124.23 38.79 A 16.014 16.014 0 0 1 122.738 34.546 Q 122.28 32.347 122.28 29.76 A 26.413 26.413 0 0 1 122.595 25.572 Q 123.027 22.885 124.05 20.7 A 14.485 14.485 0 0 1 126.487 17.009 A 12.665 12.665 0 0 1 129.03 14.88 A 13.075 13.075 0 0 1 134.686 12.938 A 16.473 16.473 0 0 1 136.5 12.84 A 16.003 16.003 0 0 1 139.899 13.185 A 12.023 12.023 0 0 1 143.61 14.64 Q 146.58 16.44 148.17 19.71 A 15.451 15.451 0 0 1 149.498 23.984 A 20.803 20.803 0 0 1 149.76 27.36 Z M 11.94 45.6 L 0 45.6 L 0 2.76 L 13.2 2.76 Q 19.68 2.76 24.42 5.16 Q 29.16 7.56 31.74 12.21 Q 34.32 16.86 34.32 23.76 A 31.791 31.791 0 0 1 33.743 30.023 Q 33.009 33.673 31.341 36.474 A 16.349 16.349 0 0 1 28.41 40.11 Q 22.99 45.145 13.659 45.562 A 38.47 38.47 0 0 1 11.94 45.6 Z M 12.42 7.38 L 5.4 7.38 L 5.4 40.98 L 11.22 40.98 A 25.692 25.692 0 0 0 18 40.165 Q 28.62 37.253 28.62 23.94 A 27.593 27.593 0 0 0 28.267 19.363 Q 27.859 16.946 26.982 15.039 A 11.692 11.692 0 0 0 24.39 11.37 A 13.79 13.79 0 0 0 18.714 8.199 Q 15.927 7.38 12.42 7.38 Z M 163.2 29.34 L 163.2 29.58 Q 163.2 33.326 163.975 35.962 A 11.042 11.042 0 0 0 165.15 38.67 A 6.113 6.113 0 0 0 168.397 41.217 Q 170.07 41.82 172.38 41.82 A 9.271 9.271 0 0 0 175.035 41.461 A 6.782 6.782 0 0 0 178.83 38.64 A 10.87 10.87 0 0 0 180.168 35.73 Q 180.589 34.343 180.786 32.66 A 27.55 27.55 0 0 0 180.96 29.46 A 25.262 25.262 0 0 0 180.628 25.167 Q 179.295 17.48 172.611 17.285 A 12.056 12.056 0 0 0 172.26 17.28 A 13.871 13.871 0 0 0 169.771 17.487 Q 168.398 17.738 167.348 18.293 A 5.865 5.865 0 0 0 165.18 20.22 A 9.443 9.443 0 0 0 164.053 22.624 Q 163.315 24.926 163.215 28.272 A 35.965 35.965 0 0 0 163.2 29.34 Z M 94.02 26.34 L 110.4 26.34 A 14.947 14.947 0 0 0 110.103 23.502 Q 109.752 21.821 108.987 20.491 A 8.605 8.605 0 0 0 108.48 19.71 A 5.932 5.932 0 0 0 105.057 17.448 Q 104.037 17.182 102.81 17.162 A 12.41 12.41 0 0 0 102.6 17.16 Q 98.82 17.16 96.63 19.59 A 9.336 9.336 0 0 0 94.842 22.598 Q 94.378 23.835 94.148 25.321 A 18.044 18.044 0 0 0 94.02 26.34 Z M 127.86 26.34 L 144.24 26.34 A 14.947 14.947 0 0 0 143.943 23.502 Q 143.592 21.821 142.827 20.491 A 8.605 8.605 0 0 0 142.32 19.71 A 5.932 5.932 0 0 0 138.897 17.448 Q 137.877 17.182 136.65 17.162 A 12.41 12.41 0 0 0 136.44 17.16 Q 132.66 17.16 130.47 19.59 A 9.336 9.336 0 0 0 128.682 22.598 Q 128.218 23.835 127.988 25.321 A 18.044 18.044 0 0 0 127.86 26.34 Z" vector-effect="non-scaling-stroke"/></g></svg>